<svg id="Capa_1" enable-background="new 0 0 512 512" height="512" viewBox="0 0 512 512" width="512" xmlns="http://www.w3.org/2000/svg"><g><path d="m430.568 415.471h-349.136c-40.832 0-73.932-33.1-73.932-73.932v-103.3c0-24.045 19.493-43.538 43.538-43.538h409.925c24.045 0 43.538 19.493 43.538 43.538v103.3c-.001 40.832-33.101 73.932-73.933 73.932z" fill="#30579d"/><path d="m460.963 194.702h-22.96c24.045 0 43.538 19.492 43.538 43.538v103.3c0 40.831-33.1 73.932-73.932 73.932h22.96c40.832 0 73.932-33.101 73.932-73.932v-103.3c-.001-24.046-19.493-43.538-43.538-43.538z" fill="#26457d"/><g><path d="m51.038 194.702h409.925c19.115 0 35.34 12.323 41.196 29.454l-12.956-77.911c-7.571-45.525-46.953-78.899-93.104-78.899h-280.197c-46.151 0-85.533 33.374-93.104 78.899l-12.956 77.911c5.856-17.131 22.082-29.454 41.196-29.454z" fill="#f9f6f9"/></g><path d="m487.872 204.02s.001 0 0 0c6.838 5.389 11.682 12.513 14.286 20.136l-4.612-27.736-8.344-50.175c-7.571-45.525-46.953-78.899-93.103-78.899h-22.96c46.151 0 85.533 33.374 93.104 78.899l3.38 20.323c.873 5.249-3.229 9.92-8.55 9.906-.036 0-.073 0-.109 0h-409.926c-15.348 0-28.83 7.948-36.583 19.946l-4.612 27.736c5.856-17.131 22.081-29.454 41.196-29.454h409.925c4.789 0 9.396.774 13.704 2.203 4.792 1.59 9.513 4.206 13.204 7.115z" fill="#dddaec"/><circle cx="396.577" cy="305.087" fill="#beb9dd" r="72.917"/><path d="m396.577 232.169c-3.609 0-7.153.272-10.622.779 35.235 5.144 62.296 35.477 62.296 72.139 0 36.663-27.06 66.995-62.296 72.139 3.468.506 7.013.779 10.622.779 40.271 0 72.917-32.646 72.917-72.917 0-40.273-32.646-72.919-72.917-72.919z" fill="#a7a2d3"/><circle cx="396.577" cy="305.087" fill="#80b4fb" r="35.346"/><path d="m396.577 269.74c-3.337 0-6.561.473-9.622 1.337 14.843 4.191 25.724 17.825 25.724 34.009 0 16.185-10.882 29.818-25.724 34.01 3.06.864 6.285 1.336 9.622 1.336 19.521 0 35.346-15.825 35.346-35.346s-15.825-35.346-35.346-35.346z" fill="#61a2f9"/><path d="m178.782 363.465h-74.42c-32.241 0-58.378-26.137-58.378-58.378 0-32.241 26.137-58.378 58.378-58.378h74.42c10.436 0 18.896 8.46 18.896 18.896v78.965c0 10.435-8.46 18.895-18.896 18.895z" fill="#f9f6f9"/><path d="m178.782 246.709h-19.636c10.436 0 18.896 8.459 18.896 18.896v78.965c0 10.436-8.46 18.896-18.896 18.896h19.636c10.436 0 18.896-8.46 18.896-18.896v-78.965c0-10.437-8.46-18.896-18.896-18.896z" fill="#dddaec"/><path d="m326.949 164.348h-41.169c-5.816 0-10.183-5.312-9.059-11.018l2.333-11.844c.852-4.328 4.648-7.449 9.059-7.449h36.503c4.412 0 8.207 3.121 9.059 7.449l2.333 11.844c1.124 5.707-3.244 11.018-9.059 11.018z" fill="#dd636e"/><path d="m425.739 164.348h-41.169c-5.816 0-10.183-5.312-9.059-11.018l2.333-11.844c.852-4.328 4.648-7.449 9.059-7.449h36.503c4.412 0 8.207 3.121 9.059 7.449l2.333 11.844c1.124 5.707-3.243 11.018-9.059 11.018z" fill="#dd636e"/><g fill="#26457d"><path d="m142.293 444.655h-43.582c-6.201 0-11.228-5.027-11.228-11.228v-17.955h66.038v17.955c0 6.201-5.027 11.228-11.228 11.228z"/><path d="m413.29 444.655h-43.582c-6.201 0-11.228-5.027-11.228-11.228v-17.955h66.038v17.955c0 6.201-5.027 11.228-11.228 11.228z"/></g><g><path d="m476.994 305.086c0-44.342-36.075-80.417-80.417-80.417-44.343 0-80.418 36.075-80.418 80.417 0 44.343 36.075 80.418 80.418 80.418 44.342 0 80.417-36.075 80.417-80.418zm-80.417 65.418c-36.071 0-65.418-29.347-65.418-65.418s29.347-65.417 65.418-65.417 65.417 29.346 65.417 65.417-29.346 65.418-65.417 65.418z"/><path d="m396.577 262.241c-23.626 0-42.847 19.221-42.847 42.846s19.221 42.846 42.847 42.846c23.625 0 42.846-19.221 42.846-42.846s-19.221-42.846-42.846-42.846zm0 70.691c-15.354 0-27.847-12.491-27.847-27.846s12.492-27.846 27.847-27.846 27.846 12.491 27.846 27.846-12.491 27.846-27.846 27.846z"/><path d="m78.088 283.859v42.456c0 4.143 3.357 7.5 7.5 7.5s7.5-3.357 7.5-7.5v-42.456c0-4.143-3.357-7.5-7.5-7.5s-7.5 3.357-7.5 7.5z"/><path d="m114.331 283.859v42.456c0 4.143 3.357 7.5 7.5 7.5s7.5-3.357 7.5-7.5v-42.456c0-4.143-3.357-7.5-7.5-7.5s-7.5 3.357-7.5 7.5z"/><path d="m165.573 326.315v-42.456c0-4.143-3.357-7.5-7.5-7.5s-7.5 3.357-7.5 7.5v42.456c0 4.143 3.357 7.5 7.5 7.5s7.5-3.357 7.5-7.5z"/><path d="m460.586 388.257c7.768-3.868 13.715-9.81 17.68-17.659 1.866-3.697.383-8.209-3.314-10.076-3.697-1.866-8.208-.384-10.076 3.314-2.509 4.97-6.099 8.565-10.975 10.993-3.708 1.847-5.217 6.35-3.371 10.057 1.851 3.72 6.358 5.212 10.056 3.371z"/><path d="m285.78 171.848h41.169c5.023 0 9.734-2.226 12.925-6.105 3.19-3.881 4.463-8.933 3.492-13.861l-2.332-11.845c-1.541-7.822-8.445-13.5-16.418-13.5h-36.503c-7.973 0-14.877 5.678-16.418 13.5l-2.333 11.845c-.971 4.929.302 9.98 3.492 13.86 3.191 3.881 7.903 6.106 12.926 6.106zm-1.701-17.068 2.333-11.845c.16-.811.875-1.398 1.701-1.398h36.503c.826 0 1.541.588 1.701 1.398l2.332 11.845c.131.664-.125 1.147-.362 1.437-.236.288-.661.632-1.338.632h-41.169c-.677 0-1.102-.344-1.339-.633s-.493-.772-.362-1.436z"/><path d="m384.57 171.848h41.169c5.022 0 9.733-2.225 12.924-6.104 3.191-3.88 4.465-8.933 3.494-13.862l-2.333-11.845c-1.541-7.822-8.445-13.5-16.418-13.5h-36.503c-7.973 0-14.877 5.678-16.418 13.5l-2.333 11.845c-.971 4.929.302 9.98 3.492 13.86 3.191 3.881 7.903 6.106 12.926 6.106zm-1.701-17.068 2.333-11.845c.16-.811.875-1.398 1.701-1.398h36.503c.826 0 1.541.588 1.701 1.398l2.333 11.844c.13.665-.125 1.148-.362 1.437s-.662.633-1.339.633h-41.169c-.677 0-1.102-.344-1.339-.633s-.493-.772-.362-1.436z"/><path d="m97.096 100.259c-4.143 0-7.5 3.357-7.5 7.5s3.357 7.5 7.5 7.5h67.025c4.143 0 7.5-3.357 7.5-7.5s-3.357-7.5-7.5-7.5z"/><path d="m164.121 127.844h-67.025c-4.143 0-7.5 3.357-7.5 7.5s3.357 7.5 7.5 7.5h67.025c4.143 0 7.5-3.357 7.5-7.5s-3.357-7.5-7.5-7.5z"/><path d="m164.121 155.43h-67.025c-4.143 0-7.5 3.357-7.5 7.5s3.357 7.5 7.5 7.5h67.025c4.143 0 7.5-3.357 7.5-7.5s-3.357-7.5-7.5-7.5z"/><path d="m248.5 291.124v27.926c0 4.143 3.357 7.5 7.5 7.5s7.5-3.357 7.5-7.5v-27.926c0-4.143-3.357-7.5-7.5-7.5s-7.5 3.357-7.5 7.5z"/><path d="m509.467 222.388-12.867-77.374c-3.952-23.768-16.252-45.436-34.634-61.013s-41.774-24.156-65.868-24.156h-208.037c-4.143 0-7.5 3.357-7.5 7.5s3.357 7.5 7.5 7.5h208.038c42.663 0 78.707 30.545 85.705 72.63l8.109 48.764c-8.233-5.692-18.206-9.038-28.95-9.038h-409.925c-10.744 0-20.717 3.345-28.95 9.037l8.109-48.764c6.998-42.085 43.042-72.63 85.705-72.63h42.171c4.143 0 7.5-3.357 7.5-7.5s-3.357-7.5-7.5-7.5h-42.171c-24.094 0-47.486 8.579-65.868 24.156s-30.681 37.247-34.634 61.014l-12.865 77.369c-1.638 4.995-2.535 10.322-2.535 15.857v103.3c0 44.416 35.75 80.616 79.983 81.395v10.492c0 10.327 8.401 18.729 18.728 18.729h43.582c10.327 0 18.729-8.401 18.729-18.729v-10.455h189.958v10.455c0 10.327 8.401 18.729 18.728 18.729h43.583c10.326 0 18.728-8.401 18.728-18.729v-10.493c22.131-.399 43.347-9.878 58.4-26.19 2.81-3.044 2.618-7.789-.426-10.598-3.044-2.811-7.789-2.619-10.598.426-12.551 13.601-30.348 21.4-48.826 21.4h-349.136c-36.631-.001-66.433-29.802-66.433-66.432v-103.3c0-19.871 16.167-36.038 36.038-36.038h409.925c19.871 0 36.037 16.167 36.037 36.038v103.3c0 7.49-1.253 14.87-3.724 21.934-1.368 3.91.692 8.188 4.603 9.556 3.911 1.37 8.188-.694 9.556-4.603 3.029-8.66 4.565-17.706 4.565-26.887v-103.3c0-5.533-.897-10.858-2.533-15.852zm-92.449 200.583v10.455c0 2.056-1.672 3.729-3.728 3.729h-43.583c-2.056 0-3.728-1.673-3.728-3.729v-10.455zm-270.997 0v10.455c0 2.056-1.673 3.729-3.729 3.729h-43.581c-2.056 0-3.728-1.673-3.728-3.729v-10.455z"/><path d="m138.739 363.465c0 4.143 3.357 7.5 7.5 7.5h32.543c14.555 0 26.396-11.841 26.396-26.396v-78.966c0-14.555-11.841-26.396-26.396-26.396h-74.42c-36.325 0-65.878 29.553-65.878 65.878 0 36.326 29.553 65.879 65.878 65.879h11.891c4.143 0 7.5-3.357 7.5-7.5s-3.357-7.5-7.5-7.5h-11.891c-28.054 0-50.878-22.824-50.878-50.879 0-28.054 22.824-50.878 50.878-50.878h74.42c6.283 0 11.396 5.112 11.396 11.396v78.966c0 6.283-5.112 11.396-11.396 11.396h-32.543c-4.142 0-7.5 3.358-7.5 7.5z"/></g></g></svg>