<svg height="512" viewBox="0 0 58 58" width="512" xmlns="http://www.w3.org/2000/svg"><g id="Page-1" fill="none" fill-rule="evenodd"><g id="040---PC" fill-rule="nonzero"><rect id="Rectangle-path" fill="#35495e" height="54" rx="2" width="58"/><path id="Shape" d="m52 4v34h-11c1.1011688-.0081672 1.9918328-.8988312 2-2-.0032948-1.1032019-.8967981-1.9967052-2-2 1.1032019-.0032948 1.9967052-.8967981 2-2v-4c-.0032948-1.1032019-.8967981-1.9967052-2-2h1c.5522847 0 1-.4477153 1-1v-20c0-.55228475-.4477153-1-1-1z" fill="#3b97d3"/><path id="Rectangle-path" d="m21 38h31v12h-31z" fill="#5d4c72"/><path id="Rectangle-path" d="m4 38h17v12h-17z" fill="#393f4a"/><path id="Shape" d="m9.59 34.59c-.3798589.3704612-.59282307.8794095-.59 1.41.0032948 1.1032019.89679813 1.9967052 2 2h-7v-14h1c2.209139 0 4-1.790861 4-4v5c0 .5522847.44771525 1 1 1h1c-1.10320187.0032948-1.9967052.8967981-2 2v4c.0032948 1.1032019.89679813 1.9967052 2 2-.5305905-.0028231-1.0395388.2101411-1.41.59z" fill="#3b97d3"/><path id="Shape" d="m10 4c-.55228475 0-1 .44771525-1 1v7c0-2.209139-1.790861-4-4-4h-1v-4z" fill="#3b97d3"/><path id="Shape" d="m7 54h8v2c0 1.1045695-.8954305 2-2 2h-4c-1.1045695 0-2-.8954305-2-2z" fill="#2c2f38"/><path id="Shape" d="m43 54h8v2c0 1.1045695-.8954305 2-2 2h-4c-1.1045695 0-2-.8954305-2-2z" fill="#2c2f38"/><rect id="Rectangle-path" fill="#b49aca" height="8" rx="2" width="34" x="9" y="26"/><path id="Shape" d="m43 36c-.0081672 1.1011688-.8988312 1.9918328-2 2h-30c-1.10320187-.0032948-1.9967052-.8967981-2-2 .00816722-1.1011688.89883122-1.9918328 2-2h30c1.1032019.0032948 1.9967052.8967981 2 2z" fill="#894b9d"/><rect id="Rectangle-path" fill="#5d4c72" height="22" rx="1" width="34" x="9" y="4"/><path id="Shape" d="m39 21c-.5522847 0-1-.4477153-1-1v-11c0-.55228475.4477153-1 1-1s1 .44771525 1 1v11c0 .5522847-.4477153 1-1 1z" fill="#3d324c"/><path id="Shape" d="m35 21c-.5522847 0-1-.4477153-1-1v-11c0-.55228475.4477153-1 1-1s1 .44771525 1 1v11c0 .5522847-.4477153 1-1 1z" fill="#3d324c"/><path id="Shape" d="m27 21c-.2651948-.0000566-.5195073-.1054506-.707-.293l-1.46-1.46c-.3789722-.3923789-.3735524-1.0160848.0121814-1.4018186s1.0094397-.3911536 1.4018186-.0121814l1.46 1.46c.2859079.2859943.3714219.7160366.216678 1.0896546-.1547439.3736179-.5192821.6172591-.923678.6173454z" fill="#b49aca"/><path id="Shape" d="m18.46 12.46c-.2651948-.0000566-.5195073-.1054506-.707-.293l-1.46-1.46c-.3789722-.3923789-.3735524-1.01608478.0121814-1.40181858.3857338-.38573379 1.0094397-.39115363 1.4018186-.01218142l1.46 1.46c.2859079.2859943.3714219.7160366.216678 1.0896546-.1547439.3736179-.5192821.6172591-.923678.6173454z" fill="#b49aca"/><path id="Shape" d="m17 21c-.4043959-.0000863-.7689341-.2437275-.923678-.6173454-.1547439-.373618-.0692299-.8036603.216678-1.0896546l1.46-1.46c.3923789-.3789722 1.0160848-.3735524 1.4018186.0121814s.3911536 1.0094397.0121814 1.4018186l-1.46 1.46c-.1874927.1875494-.4418052.2929434-.707.293z" fill="#b49aca"/><path id="Shape" d="m25.54 12.46c-.4043959-.0000863-.7689341-.2437275-.923678-.6173454-.1547439-.373618-.0692299-.8036603.216678-1.0896546l1.46-1.46c.3923789-.37897221 1.0160848-.37355237 1.4018186.01218142.3857338.3857338.3911536 1.00943968.0121814 1.40181858l-1.46 1.46c-.1874927.1875494-.4418052.2929434-.707.293z" fill="#b49aca"/><path id="Shape" d="m9 12v8c0 2.209139-1.790861 4-4 4h-1v-16h1c2.209139 0 4 1.790861 4 4z" fill="#3d324c"/><g fill="#2c2f38"><circle id="Oval" cx="12" cy="42" r="1"/><circle id="Oval" cx="12" cy="46" r="1"/><circle id="Oval" cx="9" cy="44" r="1"/><circle id="Oval" cx="15" cy="44" r="1"/></g><path id="Shape" d="m21 31h-2c-.5522847 0-1-.4477153-1-1s.4477153-1 1-1h2c.5522847 0 1 .4477153 1 1s-.4477153 1-1 1z" fill="#955ba5"/><path id="Shape" d="m31 31h-6c-.5522847 0-1-.4477153-1-1s.4477153-1 1-1h6c.5522847 0 1 .4477153 1 1s-.4477153 1-1 1z" fill="#955ba5"/><circle id="Oval" cx="22" cy="15" fill="#3d324c" r="5"/></g></g></svg>