<svg height="512" viewBox="0 0 58 51" width="512" xmlns="http://www.w3.org/2000/svg"><g id="Page-1" fill="none" fill-rule="evenodd"><g id="022---Laptop" fill-rule="nonzero"><path id="Shape" d="m52 0c2.209139 0 4 1.790861 4 4v37h-54v-37c0-2.209139 1.790861-4 4-4z" fill="#2980ba"/><path id="Shape" d="m2 33.99v-29.99c0-2.209139 1.790861-4 4-4h41.12c.16 7.5-2.38 33.59-45.12 33.99z" fill="#3b97d3"/><path id="Shape" d="m52 51h-46c-3.3137085 0-6-2.6862915-6-6v-3c0-.5522847.44771525-1 1-1h56c.5522847 0 1 .4477153 1 1v3c0 3.3137085-2.6862915 6-6 6z" fill="#84b5cb"/><path id="Shape" d="m19 41h20v2c0 1.6568542-1.3431458 3-3 3h-14c-1.6568542 0-3-1.3431458-3-3z" fill="#547580"/><path id="Shape" d="m14 46h-3c-.5522847 0-1-.4477153-1-1s.4477153-1 1-1h3c.5522847 0 1 .4477153 1 1s-.4477153 1-1 1z" fill="#547580"/><circle id="Oval" cx="5" cy="45" fill="#ff5364" r="1"/><circle id="Oval" cx="8" cy="45" fill="#24ae5f" r="1"/><g fill="#fff"><path id="Shape" d="m6 9c-.4043959-.00008635-.76893405-.2437275-.92367798-.61734544s-.06922994-.80366031.21667798-1.08965456l4-4c.39237889-.37897221 1.0160848-.37355237 1.4018186.01218142.3857338.3857338.3911536 1.00943969.0121814 1.40181858l-4 4c-.18749273.18754937-.44180519.29294336-.707.293z"/><path id="Shape" d="m6 15c-.4043959-.0000863-.76893405-.2437275-.92367798-.6173454-.15474393-.373618-.06922994-.8036603.21667798-1.0896546l10-10c.3923789-.37897221 1.0160848-.37355237 1.4018186.01218142.3857338.3857338.3911536 1.00943969.0121814 1.40181858l-10 10c-.18749273.1875494-.44180519.2929434-.707.293z"/></g></g></g></svg>