<svg id="Capa_1" enable-background="new 0 0 511.838 511.838" height="512" viewBox="0 0 511.838 511.838" width="512" xmlns="http://www.w3.org/2000/svg"><g><path d="m478.852 397.612h-445.865c-14.076 0-25.487-11.411-25.487-25.487v-318.425c0-14.076 11.411-25.487 25.487-25.487h445.865c14.076 0 25.487 11.411 25.487 25.487v318.425c-.001 14.076-11.412 25.487-25.487 25.487z" fill="#30579d"/><path d="m478.852 28.214h-24.483c14.076 0 25.487 11.411 25.487 25.487v318.425c0 14.076-11.411 25.486-25.487 25.486h24.483c14.076 0 25.486-11.411 25.486-25.486v-318.426c0-14.076-11.411-25.486-25.486-25.486z" fill="#26457d"/><path d="m339.924 114.525h-168.172c-11.749 0-21.274-9.525-21.274-21.274 0-11.749 9.525-21.274 21.274-21.274h168.172c11.749 0 21.274 9.525 21.274 21.274 0 11.749-9.524 21.274-21.274 21.274z" fill="#beb9dd"/><path d="m339.924 71.977h-23.303c11.749 0 21.274 9.525 21.274 21.274 0 11.749-9.525 21.274-21.274 21.274h23.303c11.749 0 21.274-9.525 21.274-21.274 0-11.749-9.524-21.274-21.274-21.274z" fill="#a7a2d3"/><path d="m393.341 483.625h-302.799c-12.057 0-21.83-9.774-21.83-21.83 0-12.057 9.774-21.83 21.83-21.83h302.798c3.791 0 7.498 1.12 10.654 3.219l27.986 18.611-27.986 18.611c-3.156 2.099-6.862 3.219-10.653 3.219z" fill="#30579d"/><path d="m403.995 443.183c-3.157-2.099-6.864-3.219-10.655-3.219h-29.06c3.791 0 7.498 1.12 10.655 3.219l10.805 7.186c8.164 5.429 8.164 17.422 0 22.851l-10.805 7.186c-3.157 2.099-6.863 3.219-10.655 3.219h29.06c3.791 0 7.498-1.12 10.655-3.219l27.986-18.611z" fill="#26457d"/><g><path d="m86.799 169.863c4.134 0 7.5-3.363 7.5-7.5 0-4.776-4.411-8.295-8.96-7.351-3.498.663-6.04 3.784-6.04 7.351 0 4.034 3.28 7.5 7.5 7.5z"/><path d="m135.639 162.363c0 4.074 3.321 7.5 7.511 7.5 4.222 0 7.5-3.479 7.5-7.5 0-3.59-2.577-6.695-6.04-7.351-4.513-.924-8.971 2.524-8.971 7.351z"/><path d="m198.029 155.012c-3.49.66-6.04 3.778-6.04 7.351 0 4.08 3.321 7.5 7.5 7.5 4.123 0 7.5-3.356 7.5-7.5 0-4.794-4.416-8.294-8.96-7.351z"/><path d="m254.369 155.012c-3.41.645-6.03 3.706-6.03 7.351 0 4.099 3.315 7.5 7.5 7.5 4.061 0 7.5-3.295 7.5-7.5 0-4.792-4.398-8.267-8.97-7.351z"/><path d="m313.649 155.012c-4.551-.932-8.971 2.552-8.971 7.351 0 4.125 3.372 7.5 7.5 7.5 4.237 0 7.511-3.48 7.511-7.5 0-3.642-2.626-6.704-6.04-7.351z"/><path d="m367.06 155.012c-3.539.683-6.03 3.832-6.03 7.351 0 4.133 3.37 7.5 7.5 7.5 4.124 0 7.5-3.355 7.5-7.5-.001-4.782-4.408-8.288-8.97-7.351z"/><path d="m424.879 169.863c4.019 0 7.5-3.246 7.5-7.5 0-4.81-4.418-8.264-8.97-7.351-3.41.645-6.03 3.706-6.03 7.351 0 4.107 3.325 7.5 7.5 7.5z"/><circle cx="86.799" cy="212.762" r="7.5"/><path d="m143.149 220.262c4.107 0 7.5-3.345 7.5-7.5 0-4.205-3.443-7.5-7.5-7.5-4.235 0-7.511 3.482-7.511 7.5.001 4.025 3.272 7.5 7.511 7.5z"/><path d="m198.029 205.413c-3.538.662-6.04 3.872-6.04 7.35 0 4.057 3.297 7.5 7.5 7.5 4.069 0 7.5-3.282 7.5-7.5 0-4.745-4.39-8.303-8.96-7.35z"/><circle cx="255.839" cy="212.762" r="7.5"/><path d="m312.189 220.262c4.177 0 7.489-3.402 7.489-7.5 0-4.774-4.405-8.287-8.96-7.35-3.427.642-6.029 3.742-6.029 7.35 0 4.143 3.353 7.5 7.5 7.5z"/><path d="m367.069 205.413c-3.399.636-6.04 3.703-6.04 7.35 0 4.117 3.349 7.5 7.5 7.5 4.128 0 7.5-3.35 7.5-7.5 0-4.79-4.426-8.283-8.96-7.35z"/><path d="m424.879 220.262c4.095 0 7.5-3.328 7.5-7.5 0-4.813-4.436-8.264-8.97-7.35-3.409.637-6.03 3.726-6.03 7.35 0 4.013 3.232 7.5 7.5 7.5z"/><path d="m86.799 270.663c4.147 0 7.5-3.382 7.5-7.5 0-4.799-4.448-8.291-8.96-7.35-3.459.648-6.04 3.767-6.04 7.35 0 3.994 3.218 7.5 7.5 7.5z"/><path d="m143.139 270.663c4.133 0 7.5-3.349 7.5-7.5 0-3.686-2.676-6.721-6.029-7.35-4.545-.931-8.971 2.571-8.971 7.35 0 4.125 3.371 7.5 7.5 7.5z"/><path d="m198.029 255.813c-3.387.633-6.04 3.699-6.04 7.35 0 4.035 3.264 7.5 7.5 7.5 4.139 0 7.5-3.356 7.5-7.5 0-4.75-4.379-8.296-8.96-7.35z"/><path d="m257.299 255.813c-4.49-.924-8.96 2.524-8.96 7.35 0 4.103 3.337 7.5 7.5 7.5 4.229 0 7.5-3.454 7.5-7.5 0-3.651-2.65-6.716-6.04-7.35z"/><path d="m312.189 270.663c4.294 0 7.489-3.513 7.489-7.5 0-4.841-4.462-8.277-8.96-7.35-3.363.63-6.04 3.677-6.04 7.35.001 4.16 3.399 7.5 7.511 7.5z"/><path d="m369.999 255.813c-4.525-.927-8.97 2.544-8.97 7.35 0 4.1 3.335 7.5 7.5 7.5 4.139 0 7.5-3.356 7.5-7.5 0-3.636-2.605-6.695-6.03-7.35z"/><path d="m424.879 270.663c4.06 0 7.5-3.305 7.5-7.5 0-4.774-4.425-8.288-8.97-7.35-3.37.63-6.03 3.677-6.03 7.35 0 4.066 3.286 7.5 7.5 7.5z"/><path d="m79.449 315.033c.66 3.451 3.765 6.03 7.35 6.03 4.708 0 8.308-4.349 7.351-8.96-.753-4.028-4.793-6.728-8.811-5.891-3.922.735-6.74 4.677-5.89 8.821z"/><path d="m143.149 321.063c4.23 0 7.5-3.494 7.5-7.5 0-4.682-4.331-8.308-8.971-7.351-3.491.654-6.04 3.835-6.04 7.351.001 3.982 3.232 7.5 7.511 7.5z"/><path d="m198.029 306.212c-3.529.66-6.04 3.87-6.04 7.351 0 4.051 3.286 7.5 7.5 7.5 4.103 0 7.5-3.326 7.5-7.5 0-4.844-4.458-8.255-8.96-7.351z"/><path d="m254.369 306.212c-3.392.634-6.03 3.714-6.03 7.351 0 4.08 3.288 7.5 7.5 7.5 4.22 0 7.5-3.469 7.5-7.5 0-4.712-4.353-8.304-8.97-7.351z"/><path d="m312.179 321.063c4.26 0 7.511-3.505 7.511-7.5 0-4.674-4.316-8.286-8.971-7.351-3.491.654-6.04 3.835-6.04 7.351 0 3.991 3.233 7.5 7.5 7.5z"/><path d="m367.06 306.212c-3.452.659-6.03 3.768-6.03 7.351 0 4.037 3.271 7.5 7.5 7.5 4.09 0 7.5-3.333 7.5-7.5-.001-4.752-4.389-8.296-8.97-7.351z"/><path d="m424.879 321.063c4.089 0 7.5-3.324 7.5-7.5 0-3.589-2.593-6.706-6.04-7.351-4.547-.948-8.96 2.581-8.96 7.351 0 4.159 3.379 7.5 7.5 7.5z"/><path d="m442.965 454.294h-8.718l-26.098-17.356c-4.401-2.927-9.521-4.474-14.808-4.474h-302.799c-16.173 0-29.33 13.157-29.33 29.33s13.157 29.33 29.33 29.33h206.648c4.143 0 7.5-3.357 7.5-7.5s-3.357-7.5-7.5-7.5h-206.648c-7.901 0-14.33-6.429-14.33-14.33s6.429-14.33 14.33-14.33h302.799c2.321 0 4.569.679 6.501 1.964l18.595 12.366-18.593 12.365c-1.935 1.285-4.183 1.965-6.503 1.965h-66.163c-4.143 0-7.5 3.357-7.5 7.5s3.357 7.5 7.5 7.5h66.163c5.284 0 10.404-1.547 14.808-4.474l26.098-17.356h8.718c4.143 0 7.5-3.357 7.5-7.5s-3.358-7.5-7.5-7.5z"/><path d="m259.423 454.294c-4.143 0-7.5 3.357-7.5 7.5s3.357 7.5 7.5 7.5h24.171c4.143 0 7.5-3.357 7.5-7.5s-3.357-7.5-7.5-7.5z"/><path d="m478.852 20.713h-445.865c-18.189 0-32.987 14.798-32.987 32.988v244.869c0 4.143 3.357 7.5 7.5 7.5s7.5-3.357 7.5-7.5v-244.869c0-9.918 8.069-17.987 17.987-17.987h445.864c9.918 0 17.986 8.069 17.986 17.987v318.425c0 9.918-8.068 17.986-17.986 17.986h-445.864c-9.918 0-17.987-8.068-17.987-17.986v-43.568c0-4.143-3.357-7.5-7.5-7.5s-7.5 3.357-7.5 7.5v43.568c0 18.188 14.798 32.986 32.987 32.986h445.864c18.188 0 32.986-14.798 32.986-32.986v-318.425c.001-18.19-14.797-32.988-32.985-32.988z"/><path d="m312.185 79.477c4.143 0 7.5-3.357 7.5-7.5s-3.357-7.5-7.5-7.5h-140.433c-15.866 0-28.773 12.908-28.773 28.774s12.907 28.773 28.773 28.773h168.173c15.865 0 28.773-12.907 28.773-28.773 0-14.771-11.067-27.07-25.744-28.612-4.116-.434-7.81 2.557-8.242 6.676s2.556 7.81 6.676 8.242c7.018.737 12.311 6.624 12.311 13.694 0 7.595-6.179 13.773-13.773 13.773h-42.036v-27.547zm-154.206 13.774c0-7.596 6.179-13.774 13.773-13.774h42.034v27.548h-42.034c-7.595 0-13.773-6.179-13.773-13.774zm124.911 13.774h-54.104v-27.548h54.104z"/></g></g></svg>