<svg height="512" viewBox="0 0 58 58" width="512" xmlns="http://www.w3.org/2000/svg"><g id="Page-1" fill="none" fill-rule="evenodd"><g id="039---VR-Headset" fill-rule="nonzero"><path id="Shape" d="m52 18h4c1.1045695 0 2 .8954305 2 2v4c0 1.1045695-.8954305 2-2 2h-4z" fill="#547580"/><path id="Shape" d="m2 18h4v8h-4c-1.1045695 0-2-.8954305-2-2v-4c0-1.1045695.8954305-2 2-2z" fill="#547580"/><path id="Shape" d="m33 6v-4c-.0032948-1.10320187-.8967981-1.9967052-2-2h-4c-1.1032019.0032948-1.9967052.89679813-2 2v4z" fill="#3f5c6c"/><path id="Shape" d="m45 8s-3.048-4-16-4-16 4-16 4l16 2z" fill="#2c2f38"/><path id="Shape" d="m25.17 36h18.83c5.5228475 0 10-4.4771525 10-10v-8c0-5.5228475-4.4771525-10-10-10h-30c-5.5228475 0-10 4.4771525-10 10v8c0 5.5228475 4.4771525 10 10 10h4.67" fill="#35495e"/><circle id="Oval" cx="11" cy="15" fill="#cc66a1" r="2"/><circle id="Oval" cx="47" cy="15" fill="#ff5364" r="2"/><circle id="Oval" cx="11" cy="29" fill="#ff5364" r="2"/><circle id="Oval" cx="47" cy="29" fill="#cc66a1" r="2"/><path id="Shape" d="m32 13h-6c-.5522847 0-1-.4477153-1-1s.4477153-1 1-1h6c.5522847 0 1 .4477153 1 1s-.4477153 1-1 1z" fill="#3b97d3"/><g fill="#547580"><path id="Shape" d="m19.972 28.6-1.841.783c-1.0139026.4314024-1.4878878 1.6016092-1.06 2.617l4.572 11.43c-3.95-3.822-9.643-1.4-9.643-1.4s.513 4.014-4.088 5.97-9.412 2.907-7.467 7.491 6.161 1.711 8.921.537 5.132-3.264 8.813-4.83 3.991-1.415 5.832-2.2l3.681-1.565c1.0137383-.4310131 1.4881041-1.6006086 1.061-2.616l-6.161-15.165c-.4344971-1.0124545-1.6059827-1.4828373-2.62-1.052z"/><path id="Shape" d="m38.028 28.6 1.841.783c1.0139026.4314024 1.4878878 1.6016092 1.06 2.617l-4.572 11.43c3.95-3.822 9.643-1.4 9.643-1.4s-.513 4.014 4.088 5.97 9.416 2.907 7.467 7.491-6.161 1.711-8.921.537-5.134-3.264-8.813-4.828-3.991-1.417-5.832-2.2l-3.681-1.565c-1.0137383-.4310131-1.4881041-1.6006086-1.061-2.616l6.161-15.167c.4344971-1.0124545 1.6059827-1.4828373 2.62-1.052z"/></g></g></g></svg>